PathFileType	4	(X/Y/Z)	/Users/niels/Desktop/University/Third Semester/Perception and Action/Exam/Gymnastics Motion Tracking/Code for Gym Tracking/Analyzed Data/Webcam_Backflip/id1_4_trajectory_Sports2D/id1_4_trajectory_Sports2D_px_person00.trc
DataRate	CameraRate	NumFrames	NumMarkers	Units	OrigDataRate	OrigDataStartFrame	OrigNumFrames
29.874476987447697	29.874476987447697	7	22	m	29.874476987447697	59	239
Frame#	Time	Hip			RHip			RKnee			RAnkle			RBigToe			RSmallToe			RHeel			LHip			LKnee			LAnkle			LBigToe			LSmallToe			LHeel			Neck			Head			Nose			RShoulder			RElbow			RWrist			LShoulder			LElbow			LWrist		
		X1	Y1	Z1	X2	Y2	Z2	X3	Y3	Z3	X4	Y4	Z4	X5	Y5	Z5	X6	Y6	Z6	X7	Y7	Z7	X8	Y8	Z8	X9	Y9	Z9	X10	Y10	Z10	X11	Y11	Z11	X12	Y12	Z12	X13	Y13	Z13	X14	Y14	Z14	X15	Y15	Z15	X16	Y16	Z16	X17	Y17	Z17	X18	Y18	Z18	X19	Y19	Z19	X20	Y20	Z20	X21	Y21	Z21	X22	Y22	Z22
59	1.9749299719887954	0.925252475854685	-0.41278691915570054	0.0	0.9301713077717141	-0.4154011682330668	0.0	1.0026311691774459	-0.3644942142536277	0.0	1.018511635551001	-0.46296410524320747	0.0	1.037174665193434	-0.477873566928061	0.0	1.0378353528878956	-0.4813081080566092	0.0	1.0150351622951914	-0.47782406210032685	0.0	0.92296929511399	-0.40605592562529613	0.0	0.9940244165436888	-0.3628248474828954	0.0	1.0136510595348032	-0.4580586307508421	0.0	1.0334456545645598	-0.4733209338419511	0.0	1.0296482510343965	-0.47248370042854076	0.0	1.0084335800336004	-0.4731541925479649	0.0	0.8219606698127986	-0.31252427329628796	0.0	0.7579072761991718	-0.264493653601777	0.0	0.8020555695832872	-0.2628858361938972	0.0	0.8316287416389012	-0.31726533947559343	0.0	0.8802118430011487	-0.2844936993580113	0.0	0.8981257780970243	-0.2253828148245717	0.0	0.8286528695603428	-0.3133532749136485	0.0	0.8750657556655672	-0.2771256244197492	0.0	0.8929184815153032	-0.2256174953036589	0.0
60	2.008403361344538	0.9287272125961519	-0.38914045568522737	0.0	0.9335878121737561	-0.3915285193986087	0.0	0.9817924155434552	-0.31158908919885736	0.0	1.0199198226863622	-0.39567888105647026	0.0	1.0391172255663956	-0.39818415144723646	0.0	1.041397065105092	-0.40314159979414604	0.0	1.019954375407151	-0.40986664175238413	0.0	0.9252185462907687	-0.38173038519581654	0.0	0.9748949324510786	-0.31114968917684227	0.0	1.014077957599872	-0.39138338029362	0.0	1.0331605997346107	-0.39409383200269144	0.0	1.0307347554106248	-0.3965179192624628	0.0	1.0149525963604182	-0.4063062790831144	0.0	0.8155155652294648	-0.31141132704061625	0.0	0.7488443314389208	-0.27571535810249204	0.0	0.7909874024459335	-0.26837970381846443	0.0	0.8273850464358067	-0.3156752228353115	0.0	0.8895425466236158	-0.2943539617655127	0.0	0.9158512203618369	-0.23527677780437398	0.0	0.8244392075536143	-0.3125301651846301	0.0	0.8829893323041823	-0.28595851359360863	0.0	0.9099743907973851	-0.23536728180798608	0.0
61	2.04187675070028	0.9328766458498698	-0.3652172443877666	0.0	0.9371697350634773	-0.3667909907316598	0.0	0.9542023308573544	-0.26928387259678255	0.0	1.011476760073158	-0.3347645213685473	0.0	1.029232321444734	-0.3254382626377318	0.0	1.0328013941530805	-0.33078642709206973	0.0	1.014493113513369	-0.34700847846645255	0.0	0.9280578595601886	-0.35855096775660394	0.0	0.9492221469186497	-0.2704893534412419	0.0	1.0050458866719665	-0.33286102354580127	0.0	1.022744243687159	-0.32262824542689633	0.0	1.0198540988483586	-0.32808316387475434	0.0	1.0122017389210654	-0.3456746791233156	0.0	0.8132674158403194	-0.31834810985996914	0.0	0.7457901093760341	-0.29833792768781875	0.0	0.7842153606627144	-0.28561795272723167	0.0	0.8270797058762305	-0.32024801818259885	0.0	0.8994591169918149	-0.30520548370691014	0.0	0.9309431697736936	-0.24467303935139456	0.0	0.8242755230631331	-0.3185122373576002	0.0	0.8914983697755048	-0.2969009230702925	0.0	0.9245594778544901	-0.24467196011065667	0.0
62	2.075350140056022	0.9354340826241385	-0.34076509108282443	0.0	0.9385950913784458	-0.34114269982483125	0.0	0.9233792048239607	-0.23835878343505149	0.0	0.9952005478753884	-0.28266609430283585	0.0	1.010255730522896	-0.2639027101964459	0.0	1.0146421350924155	-0.2681571506935112	0.0	1.0004504558884997	-0.291795312101078	0.0	0.9302679742918695	-0.3361924624392467	0.0	0.9205002563835237	-0.24171782885754076	0.0	0.9889992106626375	-0.28413840066856844	0.0	1.0048620834581194	-0.2623146906924843	0.0	1.0000551751184952	-0.2700354765249346	0.0	1.0016867536357186	-0.2930117845703175	0.0	0.8165982192870217	-0.3319678323581193	0.0	0.7515001816027704	-0.3309182087450877	0.0	0.7839341248602463	-0.31357720753751006	0.0	0.831206772276175	-0.32952031324752895	0.0	0.9091979012869078	-0.31392876868575714	0.0	0.9418201586579363	-0.2504588497019588	0.0	0.8291259426827685	-0.32974521698580833	0.0	0.9005001590018291	-0.30687529595585417	0.0	0.9354035753773448	-0.2505411591160647	0.0
63	2.1088235294117648	0.9345666700307809	-0.3169342975332807	0.0	0.9362504990702034	-0.3160447677492288	0.0	0.892420516084458	-0.21879137344172933	0.0	0.9741961645405591	-0.24031545837654777	0.0	0.9860373327347757	-0.21501065922224444	0.0	0.9907884712018321	-0.21698683499465724	0.0	0.9810893401577633	-0.24571316902635454	0.0	0.9307592743175586	-0.3153565477262332	0.0	0.8918460782405748	-0.22464143446561904	0.0	0.9692451148856505	-0.2448661843829007	0.0	0.982489463669061	-0.2141921788305831	0.0	0.9757358021602313	-0.22294992184044626	0.0	0.9859498363282301	-0.24878682364168875	0.0	0.8265143973613228	-0.3499113516247157	0.0	0.768369487529554	-0.3696575142133875	0.0	0.7921214898774419	-0.3489517497732761	0.0	0.8401697645921096	-0.34159463458745115	0.0	0.918427405727158	-0.3187018198825746	0.0	0.9486000217558286	-0.25110273158017066	0.0	0.8394257497561689	-0.34432345963007543	0.0	0.9100692735679101	-0.3138033677035158	0.0	0.9425397230698294	-0.2517002607443495	0.0
64	2.142296918767507	0.9298850417047321	-0.29575971467430345	0.0	0.9303486591547481	-0.29388395680965307	0.0	0.8635878043981748	-0.2104840878833591	0.0	0.950269260489154	-0.2077290250173199	0.0	0.958171353165211	-0.17811461396230646	0.0	0.9630419325312127	-0.17736790087003973	0.0	0.9584321147886405	-0.20925361186931138	0.0	0.9288396791754583	-0.2974054848266404	0.0	0.865500626143219	-0.2183767615834213	0.0	0.9474446482658135	-0.21387222308345658	0.0	0.9562200799311618	-0.17781800074699491	0.0	0.9490731944309638	-0.1859832857827955	0.0	0.9663761525127517	-0.21286524433580684	0.0	0.8430158290642705	-0.3691255077417351	0.0	0.7968595436917854	-0.4088372583844864	0.0	0.8094194768363884	-0.3861646443960438	0.0	0.8541945185403725	-0.35429574094143557	0.0	0.9269801532908328	-0.3191921741717706	0.0	0.9521555513160442	-0.2469605329583402	0.0	0.8545828412855329	-0.3601540950350183	0.0	0.9197611016585626	-0.3169237919431659	0.0	0.9463489416162806	-0.24868391811203036	0.0
65	2.175770308123249	0.9226710467957029	-0.27900984118131417	0.0	0.9227676521632302	-0.2767718605915888	0.0	0.8383906209555074	-0.21328016515935208	0.0	0.9231062492300404	-0.18542251474075774	0.0	0.9256035259270875	-0.15339806960997426	0.0	0.9304559930927784	-0.15020078157833536	0.0	0.9321181159832689	-0.18305635993415845	0.0	0.9246171024435383	-0.28330860943031155	0.0	0.842869565640979	-0.2216600569118646	0.0	0.9229168745736992	-0.19107740287029415	0.0	0.924119781364619	-0.15339319300421358	0.0	0.9191088853657899	-0.15922761444301406	0.0	0.9426113338018469	-0.18588324878317425	0.0	0.8647956083401833	-0.3866092491290715	0.0	0.8345996605670056	-0.4427379072133963	0.0	0.8345795552266364	-0.4193023631436979	0.0	0.8728109819375868	-0.36569190814953273	0.0	0.9346904525242309	-0.31626108420979576	0.0	0.9529579213888305	-0.239915142388789	0.0	0.8732243457586456	-0.37508156796345543	0.0	0.92873482089965	-0.3166358921173168	0.0	0.9469465903370686	-0.24335970649363778	0.0
